<svg fill="none" height="24" viewBox="0 0 24 24" width="24" xmlns="http://www.w3.org/2000/svg"><g fill="#000"><path d="m11.6509 2.34953-5.28996 5.29c-.2.2-.2.51 0 .71l1.28999 1.29c.2.2.51001.2.71001 0l3.28996-3.29c.2-.2.51-.2.71 0l3.29 3.29c.2.2.51.2.71 0l1.29-1.29c.2-.2.2-.51 0-.71l-5.29-5.29c-.2-.19-.52-.19-.71 0z"/><path d="m11.6509 21.6509-5.28996-5.29c-.2-.2-.2-.51 0-.71l1.28999-1.29c.2-.2.51001-.2.71001 0l3.28996 3.29c.2.2.51.2.71 0l3.29-3.29c.2-.2.51-.2.71 0l1.29 1.29c.2.2.2.51 0 .71l-5.29 5.29c-.2.19-.52.19-.71 0z"/><path d="m20.0992 10.0995 1.54 1.54c.2.2.2.51 0 .71l-1.54 1.54c-.2.2-.51.2-.71 0l-1.54-1.54c-.2-.2-.2-.51 0-.71l1.54-1.54c.2-.18997.52-.18997.71 0z"/><path d="m4.59922 10.0995 1.53999 1.54c.2.2.2.51 0 .71l-1.53999 1.54c-.2.2-.51001.2-.71001 0l-1.53999-1.54c-.2-.2-.2-.51 0-.71l1.53999-1.54c.2-.18997.52001-.18997.71001 0z"/><path d="m12.3507 9.88047 1.77 1.77003c.2.2.2.51 0 .71l-1.77 1.77c-.2.2-.51.2-.71 0l-1.77-1.77c-.2-.2-.2-.51 0-.71l1.77-1.77003c.2-.2.52-.2.71 0z"/></g></svg>