<svg fill="none" height="24" viewBox="0 0 24 24" width="24" xmlns="http://www.w3.org/2000/svg"><g fill="#000"><path d="m19.9992 3.5h-14.50001c-.31 0-.60999.15-.79999.4l-1.5 2c-.49.66-.02001 1.6.79999 1.6h14.50001c.31 0 .61-.15.8-.4l1.5-2c.49-.66.02-1.6-.8-1.6z"/><path d="m3.99919 10h14.50001c.31 0 .61.15.8.4l1.5 2c.49.66.02 1.6-.8 1.6h-14.50001c-.31 0-.60999-.15-.79999-.4l-1.5-2c-.49-.66-.02001-1.6.79999-1.6z"/><path d="m19.9992 16.5h-14.50001c-.31 0-.60999.15-.79999.4l-1.5 2c-.49.66-.02001 1.6.79999 1.6h14.50001c.31 0 .61-.15.8-.4l1.5-2c.49-.66.02-1.6-.8-1.6z"/></g></svg>